# xmcd CD database file
#
# Track frame offsets:
#	150
#	12920
#	27932
#	40752
#	46080
#	62687
#	76347
#	89832
#	101060
#	117832
#	129940
#	150282
#	168075
#	181762
#	195997
#
# Disc length: 2801 seconds
#
# Revision: 0
# Processed by: cddbd v1.5.1PL0 Copyright (c) Steve Scherf et al.
# Submitted via: CDex 1.51
#
DISCID=a90aef0f
DTITLE=Marcie Jones - Here I Am
DYEAR=2005
DGENRE=Country
TTITLE0=The Great Dividing Range
TTITLE1=Here I Am
TTITLE2=The Vow
TTITLE3=Love me Too
TTITLE4=Dancing with Angels
TTITLE5=Nothin' That a Fool Won't Do
TTITLE6=Love is a Fire with Gene Bradley Fisk
TTITLE7=The Easter Monday Mine
TTITLE8=Lonely Heroes
TTITLE9=Call on Me
TTITLE10=Butterfly of Love
TTITLE11=Good for the Goose
TTITLE12=Cowboy, Get off my Feet
TTITLE13=Tenessee Waltz
TTITLE14=You're my World
EXTD=YEAR: 2005
EXTT0=
EXTT1=
EXTT2=
EXTT3=
EXTT4=
EXTT5=
EXTT6=
EXTT7=
EXTT8=
EXTT9=
EXTT10=
EXTT11=
EXTT12=
EXTT13=
EXTT14=
PLAYORDER=
